<svg width="72" height="72" viewBox="0 0 72 72" fill="none" xmlns="http://www.w3.org/2000/svg">
<path d="M46.8 7.2V32.4H11.412L7.2 36.612V7.2H46.8ZM50.4 0H3.6C2.64522 0 1.72955 0.379284 1.05442 1.05442C0.379284 1.72955 0 2.64522 0 3.6V54L14.4 39.6H50.4C51.3548 39.6 52.2705 39.2207 52.9456 38.5456C53.6207 37.8704 54 36.9548 54 36V3.6C54 2.64522 53.6207 1.72955 52.9456 1.05442C52.2705 0.379284 51.3548 0 50.4 0ZM68.4 14.4H61.2V46.8H14.4V54C14.4 54.9548 14.7793 55.8705 15.4544 56.5456C16.1295 57.2207 17.0452 57.6 18 57.6H57.6L72 72V18C72 17.0452 71.6207 16.1295 70.9456 15.4544C70.2705 14.7793 69.3548 14.4 68.4 14.4Z" fill="#108A00"/>
</svg>
