<svg width="14" height="14" viewBox="0 0 14 14" fill="none" xmlns="http://www.w3.org/2000/svg">
<path d="M11.2778 7C10.9684 7 10.6716 6.87708 10.4528 6.65829C10.234 6.4395 10.1111 6.14275 10.1111 5.83333C10.1111 5.52391 10.234 5.22717 10.4528 5.00838C10.6716 4.78958 10.9684 4.66667 11.2778 4.66667C11.5872 4.66667 11.8839 4.78958 12.1027 5.00838C12.3215 5.22717 12.4444 5.52391 12.4444 5.83333C12.4444 6.14275 12.3215 6.4395 12.1027 6.65829C11.8839 6.87708 11.5872 7 11.2778 7ZM8.94444 3.88889C8.63503 3.88889 8.33828 3.76597 8.11949 3.54718C7.90069 3.32839 7.77778 3.03164 7.77778 2.72222C7.77778 2.4128 7.90069 2.11606 8.11949 1.89726C8.33828 1.67847 8.63503 1.55556 8.94444 1.55556C9.25386 1.55556 9.55061 1.67847 9.7694 1.89726C9.9882 2.11606 10.1111 2.4128 10.1111 2.72222C10.1111 3.03164 9.9882 3.32839 9.7694 3.54718C9.55061 3.76597 9.25386 3.88889 8.94444 3.88889ZM5.05556 3.88889C4.74614 3.88889 4.44939 3.76597 4.2306 3.54718C4.01181 3.32839 3.88889 3.03164 3.88889 2.72222C3.88889 2.4128 4.01181 2.11606 4.2306 1.89726C4.44939 1.67847 4.74614 1.55556 5.05556 1.55556C5.36497 1.55556 5.66172 1.67847 5.88051 1.89726C6.09931 2.11606 6.22222 2.4128 6.22222 2.72222C6.22222 3.03164 6.09931 3.32839 5.88051 3.54718C5.66172 3.76597 5.36497 3.88889 5.05556 3.88889ZM2.72222 7C2.4128 7 2.11606 6.87708 1.89726 6.65829C1.67847 6.4395 1.55556 6.14275 1.55556 5.83333C1.55556 5.52391 1.67847 5.22717 1.89726 5.00838C2.11606 4.78958 2.4128 4.66667 2.72222 4.66667C3.03164 4.66667 3.32839 4.78958 3.54718 5.00838C3.76597 5.22717 3.88889 5.52391 3.88889 5.83333C3.88889 6.14275 3.76597 6.4395 3.54718 6.65829C3.32839 6.87708 3.03164 7 2.72222 7ZM7 0C5.14348 0 3.36301 0.737498 2.05025 2.05025C0.737498 3.36301 0 5.14348 0 7C0 8.85652 0.737498 10.637 2.05025 11.9497C3.36301 13.2625 5.14348 14 7 14C7.30942 14 7.60617 13.8771 7.82496 13.6583C8.04375 13.4395 8.16667 13.1428 8.16667 12.8333C8.16667 12.53 8.05 12.2578 7.86333 12.0556C7.68444 11.8456 7.56778 11.5733 7.56778 11.2778C7.56778 10.9684 7.69069 10.6716 7.90949 10.4528C8.12828 10.234 8.42502 10.1111 8.73444 10.1111H10.1111C11.1425 10.1111 12.1317 9.70139 12.861 8.97208C13.5903 8.24277 14 7.25362 14 6.22222C14 2.78444 10.8656 0 7 0Z" fill="#108A00"/>
</svg>
