<svg width="72" height="72" viewBox="0 0 72 72" fill="none" xmlns="http://www.w3.org/2000/svg">
<path d="M26.7429 0C33.8355 0 40.6377 2.81754 45.6529 7.8328C50.6682 12.8481 53.4857 19.6502 53.4857 26.7429C53.4857 33.3669 51.0583 39.456 47.0674 44.1463L48.1783 45.2571H51.4286L72 65.8286L65.8286 72L45.2571 51.4286V48.1783L44.1463 47.0674C39.456 51.0583 33.3669 53.4857 26.7429 53.4857C19.6502 53.4857 12.8481 50.6682 7.8328 45.6529C2.81754 40.6377 0 33.8355 0 26.7429C0 19.6502 2.81754 12.8481 7.8328 7.8328C12.8481 2.81754 19.6502 0 26.7429 0ZM26.7429 8.22857C16.4571 8.22857 8.22857 16.4571 8.22857 26.7429C8.22857 37.0286 16.4571 45.2571 26.7429 45.2571C37.0286 45.2571 45.2571 37.0286 45.2571 26.7429C45.2571 16.4571 37.0286 8.22857 26.7429 8.22857Z" fill="#108A00"/>
</svg>
