<svg width="63" height="63" viewBox="0 0 63 63" fill="none" xmlns="http://www.w3.org/2000/svg">
<path d="M60.4767 21.4767C64.2267 17.7267 62.5167 13.3467 60.4767 11.2167L51.4767 2.21671C47.6967 -1.53329 43.3467 0.176711 41.2167 2.21671L36.1167 7.34671H28.3467C22.6467 7.34671 19.3467 10.3467 17.6667 13.7967L4.34671 27.1167V39.1167L2.21671 41.2167C-1.53329 44.9967 0.176711 49.3467 2.21671 51.4767L11.2167 60.4767C12.8367 62.0967 14.5767 62.6967 16.2267 62.6967C18.3567 62.6967 20.3067 61.6467 21.4767 60.4767L29.5767 52.3467H40.3467C45.4467 52.3467 48.0267 49.1667 48.9567 46.0467C52.3467 45.1467 54.2067 42.5667 54.9567 40.0467C59.6067 38.8467 61.3467 34.4367 61.3467 31.3467V22.3467H59.5767L60.4767 21.4767ZM55.3467 31.3467C55.3467 32.6967 54.7767 34.3467 52.3467 34.3467H49.3467V37.3467C49.3467 38.6967 48.7767 40.3467 46.3467 40.3467H43.3467V43.3467C43.3467 44.6967 42.7767 46.3467 40.3467 46.3467H27.1167L17.2767 56.1867C16.3467 57.0567 15.8067 56.5467 15.4767 56.2167L6.50671 47.2767C5.63671 46.3467 6.14671 45.8067 6.47671 45.4767L10.3467 41.5767V29.5767L16.3467 23.5767V28.3467C16.3467 31.9767 18.7467 37.3467 25.3467 37.3467C31.9467 37.3467 34.3467 31.9767 34.3467 28.3467H55.3467V31.3467ZM56.2167 17.2167L51.1167 22.3467H28.3467V28.3467C28.3467 29.6967 27.7767 31.3467 25.3467 31.3467C22.9167 31.3467 22.3467 29.6967 22.3467 28.3467V19.3467C22.3467 17.9667 22.8567 13.3467 28.3467 13.3467H38.5767L45.4167 6.50671C46.3467 5.63671 46.8867 6.14671 47.2167 6.47671L56.1867 15.4167C57.0567 16.3467 56.5467 16.8867 56.2167 17.2167Z" fill="#108A00"/>
</svg>
