<svg width="21" height="20" viewBox="0 0 21 20" fill="none" xmlns="http://www.w3.org/2000/svg">
<path d="M15.5 16.75V20H5.5V16.75C5.5 15.37 7.74 14.25 10.5 14.25C13.26 14.25 15.5 15.37 15.5 16.75ZM10.5 4C12.2239 4 13.8772 4.68482 15.0962 5.90381C16.3152 7.12279 17 8.77609 17 10.5C17 11.75 16.65 12.92 16.04 13.91L14.5 12.54C14.82 11.93 15 11.23 15 10.5C15 8 13 6 10.5 6C8 6 6 8 6 10.5C6 11.23 6.18 11.93 6.5 12.54L4.96 13.91C4.35 12.92 4 11.75 4 10.5C4 8.77609 4.68482 7.12279 5.90381 5.90381C7.12279 4.68482 8.77609 4 10.5 4ZM10.5 0C13.2848 0 15.9555 1.10625 17.9246 3.07538C19.8938 5.04451 21 7.71523 21 10.5C21 12.78 20.27 14.89 19.04 16.61L17.54 15.26C18.46 13.9 19 12.26 19 10.5C19 8.24566 18.1045 6.08365 16.5104 4.48959C14.9163 2.89553 12.7543 2 10.5 2C8.24566 2 6.08365 2.89553 4.48959 4.48959C2.89553 6.08365 2 8.24566 2 10.5C2 12.26 2.54 13.9 3.46 15.26L1.96 16.61C0.73 14.89 0 12.78 0 10.5C0 7.71523 1.10625 5.04451 3.07538 3.07538C5.04451 1.10625 7.71523 0 10.5 0ZM10.5 8C11.163 8 11.7989 8.26339 12.2678 8.73223C12.7366 9.20107 13 9.83696 13 10.5C13 11.163 12.7366 11.7989 12.2678 12.2678C11.7989 12.7366 11.163 13 10.5 13C9.83696 13 9.20107 12.7366 8.73223 12.2678C8.26339 11.7989 8 11.163 8 10.5C8 9.83696 8.26339 9.20107 8.73223 8.73223C9.20107 8.26339 9.83696 8 10.5 8Z" fill="#108A00"/>
</svg>
