<svg width="16" height="18" viewBox="0 0 16 18" fill="none" xmlns="http://www.w3.org/2000/svg">
<path d="M11.5556 13.3333V10.6667H5.33333V7.11111H11.5556V4.44444L16 8.88889L11.5556 13.3333ZM9.77778 0C10.2493 0 10.7015 0.187301 11.0349 0.520699C11.3683 0.854097 11.5556 1.30628 11.5556 1.77778V3.55556H9.77778V1.77778H1.77778V16H9.77778V14.2222H11.5556V16C11.5556 16.4715 11.3683 16.9237 11.0349 17.2571C10.7015 17.5905 10.2493 17.7778 9.77778 17.7778H1.77778C1.30628 17.7778 0.854097 17.5905 0.520699 17.2571C0.187301 16.9237 0 16.4715 0 16V1.77778C0 1.30628 0.187301 0.854097 0.520699 0.520699C0.854097 0.187301 1.30628 0 1.77778 0H9.77778Z" fill="#108A00"/>
</svg>
