<svg width="16" height="16" viewBox="0 0 16 16" fill="none" xmlns="http://www.w3.org/2000/svg">
<path d="M11.4286 0C9.32571 0 7.61905 1.70667 7.61905 3.80952C7.61905 5.91238 9.32571 7.61905 11.4286 7.61905C13.5314 7.61905 15.2381 5.91238 15.2381 3.80952C15.2381 1.70667 13.5314 0 11.4286 0ZM11.4286 6.09524C10.1638 6.09524 9.14286 5.07429 9.14286 3.80952C9.14286 2.54476 10.1638 1.52381 11.4286 1.52381C12.6933 1.52381 13.7143 2.54476 13.7143 3.80952C13.7143 5.07429 12.6933 6.09524 11.4286 6.09524ZM13.7143 10.6667H12.1905C12.1905 9.75238 11.619 8.92952 10.7657 8.60952L6.07238 6.85714H0V15.2381H4.57143V14.141L9.90476 15.619L16 13.7143V12.9524C16 11.6876 14.979 10.6667 13.7143 10.6667ZM3.04762 13.7143H1.52381V8.38095H3.04762V13.7143ZM9.88191 14.0267L4.57143 12.5714V8.38095H5.7981L10.2324 10.0343C10.4914 10.1333 10.6667 10.3848 10.6667 10.6667C10.6667 10.6667 9.14286 10.6286 8.91429 10.5524L7.10095 9.95048L6.62095 11.3981L8.43429 12C8.82286 12.1295 9.22667 12.1905 9.63809 12.1905H13.7143C14.0114 12.1905 14.2781 12.3733 14.4 12.6248L9.88191 14.0267Z" fill="#108A00"/>
</svg>
