<svg width="72" height="42" viewBox="0 0 72 42" fill="none" xmlns="http://www.w3.org/2000/svg">
<path d="M18 12H24V18H30V24H24V30H18V24H12V18H18V12ZM55.5 12C56.6935 12 57.8381 12.4741 58.682 13.318C59.5259 14.1619 60 15.3065 60 16.5C60 17.6935 59.5259 18.8381 58.682 19.682C57.8381 20.5259 56.6935 21 55.5 21C54.3065 21 53.1619 20.5259 52.318 19.682C51.4741 18.8381 51 17.6935 51 16.5C51 15.3065 51.4741 14.1619 52.318 13.318C53.1619 12.4741 54.3065 12 55.5 12ZM46.5 21C47.6935 21 48.8381 21.4741 49.682 22.318C50.5259 23.1619 51 24.3065 51 25.5C51 26.6935 50.5259 27.8381 49.682 28.682C48.8381 29.5259 47.6935 30 46.5 30C45.3065 30 44.1619 29.5259 43.318 28.682C42.4741 27.8381 42 26.6935 42 25.5C42 24.3065 42.4741 23.1619 43.318 22.318C44.1619 21.4741 45.3065 21 46.5 21ZM51 0C56.5695 0 61.911 2.21249 65.8492 6.15076C69.7875 10.089 72 15.4305 72 21C72 26.5695 69.7875 31.911 65.8492 35.8492C61.911 39.7875 56.5695 42 51 42C45.12 42 39.81 39.6 36 35.7C32.19 39.6 26.88 42 21 42C15.4305 42 10.089 39.7875 6.15076 35.8492C2.21249 31.911 0 26.5695 0 21C0 15.4305 2.21249 10.089 6.15076 6.15076C10.089 2.21249 15.4305 0 21 0H51ZM21 6C17.0218 6 13.2064 7.58035 10.3934 10.3934C7.58035 13.2064 6 17.0218 6 21C6 24.9782 7.58035 28.7936 10.3934 31.6066C13.2064 34.4196 17.0218 36 21 36C25.92 36 30.27 33.63 33 30H39C41.73 33.63 46.08 36 51 36C54.9782 36 58.7936 34.4196 61.6066 31.6066C64.4196 28.7936 66 24.9782 66 21C66 17.0218 64.4196 13.2064 61.6066 10.3934C58.7936 7.58035 54.9782 6 51 6H21Z" fill="#108A00"/>
</svg>
