<svg width="64" height="47" viewBox="0 0 64 47" fill="none" xmlns="http://www.w3.org/2000/svg">
<path d="M52.3636 11.6364L40.7273 23.2727H49.4545C49.4545 27.902 47.6156 32.3416 44.3422 35.615C41.0689 38.8883 36.6292 40.7273 32 40.7273C29.0909 40.7273 26.2691 40 23.8545 38.6909L19.6073 42.9382C23.1855 45.2073 27.4327 46.5455 32 46.5455C38.1723 46.5455 44.0918 44.0935 48.4563 39.729C52.8208 35.3646 55.2727 29.445 55.2727 23.2727H64M14.5455 23.2727C14.5455 18.6435 16.3844 14.2039 19.6578 10.9305C22.9311 7.65714 27.3708 5.81818 32 5.81818C34.9091 5.81818 37.7309 6.54545 40.1455 7.85455L44.3927 3.60727C40.8145 1.33818 36.5673 0 32 0C25.8277 0 19.9082 2.45194 15.5437 6.81642C11.1792 11.1809 8.72727 17.1004 8.72727 23.2727H0L11.6364 34.9091L23.2727 23.2727" fill="#108A00"/>
</svg>
