<svg width="27" height="27" viewBox="0 0 27 27" fill="none" xmlns="http://www.w3.org/2000/svg">
<path d="M13.3333 0C11.5824 0 9.84856 0.344877 8.23089 1.01494C6.61321 1.685 5.14336 2.66713 3.90524 3.90524C1.40476 6.40573 0 9.79711 0 13.3333C0 16.8696 1.40476 20.2609 3.90524 22.7614C5.14336 23.9995 6.61321 24.9817 8.23089 25.6517C9.84856 26.3218 11.5824 26.6667 13.3333 26.6667C16.8696 26.6667 20.2609 25.2619 22.7614 22.7614C25.2619 20.2609 26.6667 16.8696 26.6667 13.3333C26.6667 11.7867 26.3867 10.2533 25.8533 8.81333L23.72 10.9467C23.9067 11.7333 24 12.5333 24 13.3333C24 16.1623 22.8762 18.8754 20.8758 20.8758C18.8754 22.8762 16.1623 24 13.3333 24C10.5044 24 7.79125 22.8762 5.79086 20.8758C3.79047 18.8754 2.66667 16.1623 2.66667 13.3333C2.66667 10.5044 3.79047 7.79125 5.79086 5.79086C7.79125 3.79047 10.5044 2.66667 13.3333 2.66667C14.1333 2.66667 14.9333 2.76 15.72 2.94667L17.8667 0.8C16.4133 0.28 14.88 0 13.3333 0ZM22.6667 0L17.3333 5.33333V7.33333L13.9333 10.7333C13.7333 10.6667 13.5333 10.6667 13.3333 10.6667C12.6261 10.6667 11.9478 10.9476 11.4477 11.4477C10.9476 11.9478 10.6667 12.6261 10.6667 13.3333C10.6667 14.0406 10.9476 14.7189 11.4477 15.219C11.9478 15.719 12.6261 16 13.3333 16C14.0406 16 14.7189 15.719 15.219 15.219C15.719 14.7189 16 14.0406 16 13.3333C16 13.1333 16 12.9333 15.9333 12.7333L19.3333 9.33333H21.3333L26.6667 4H22.6667V0ZM13.3333 5.33333C11.2116 5.33333 9.17677 6.17619 7.67648 7.67648C6.17619 9.17677 5.33333 11.2116 5.33333 13.3333C5.33333 15.4551 6.17619 17.4899 7.67648 18.9902C9.17677 20.4905 11.2116 21.3333 13.3333 21.3333C15.4551 21.3333 17.4899 20.4905 18.9902 18.9902C20.4905 17.4899 21.3333 15.4551 21.3333 13.3333H18.6667C18.6667 14.7478 18.1048 16.1044 17.1046 17.1046C16.1044 18.1048 14.7478 18.6667 13.3333 18.6667C11.9188 18.6667 10.5623 18.1048 9.5621 17.1046C8.5619 16.1044 8 14.7478 8 13.3333C8 11.9188 8.5619 10.5623 9.5621 9.5621C10.5623 8.5619 11.9188 8 13.3333 8V5.33333Z" fill="#108A00"/>
</svg>
