<svg width="21" height="24" viewBox="0 0 21 24" fill="none" xmlns="http://www.w3.org/2000/svg">
<path d="M9.12779 0H11.5619V2.43408H12.1704C12.6546 2.43408 13.1189 2.62641 13.4612 2.96877C13.8036 3.31113 13.9959 3.77547 13.9959 4.25963V8.51927L13.4604 9.05477L15.4564 12.5112C16.8073 11.1846 17.6471 9.34686 17.6471 7.30223H20.0811C20.0811 10.2475 18.7789 12.8884 16.7099 14.6775L20.5314 21.2982L20.6897 24L18.4138 22.5152L14.6775 16.0284C13.3874 16.6734 11.9026 17.0385 10.3448 17.0385C8.78702 17.0385 7.30223 16.6734 6.01217 16.0284L2.27586 22.5152L0 24L0.158215 21.2982L7.22921 9.05477L6.69371 8.51927V4.25963C6.69371 3.77547 6.88605 3.31113 7.2284 2.96877C7.57076 2.62641 8.0351 2.43408 8.51927 2.43408H9.12779V0ZM7.22921 13.9108C8.1785 14.3611 9.23732 14.6045 10.3448 14.6045C11.4523 14.6045 12.5112 14.3611 13.4604 13.9108L11.6836 10.8316H11.6714C10.9168 11.5619 9.77282 11.5619 9.01826 10.8316H9.00608L7.22921 13.9108ZM10.3448 4.86815C10.022 4.86815 9.71249 4.99638 9.48425 5.22462C9.25601 5.45286 9.12779 5.76241 9.12779 6.08519C9.12779 6.40797 9.25601 6.71753 9.48425 6.94577C9.71249 7.17401 10.022 7.30223 10.3448 7.30223C10.6676 7.30223 10.9772 7.17401 11.2054 6.94577C11.4336 6.71753 11.5619 6.40797 11.5619 6.08519C11.5619 5.76241 11.4336 5.45286 11.2054 5.22462C10.9772 4.99638 10.6676 4.86815 10.3448 4.86815Z" fill="#108A00"/>
</svg>
